# This file uses centimeters as units for non-parametric coordinates.

mtllib FlyBulletTeste.mtl
g default
v 0.000000 -3.049379 0.000000
v 0.000000 2.675085 0.000000
v 0.951057 0.902780 -0.309017
v 0.938952 0.996570 -0.305084
v 0.903509 1.083746 -0.293568
v 0.809018 0.902780 -0.587786
v 0.798721 0.996570 -0.580304
v 0.768571 1.083746 -0.558399
v 0.587786 0.902780 -0.809017
v 0.580304 0.996570 -0.798720
v 0.558399 1.083746 -0.768571
v 0.309017 0.902780 -0.951057
v 0.305084 0.996570 -0.938952
v 0.293568 1.083746 -0.903509
v 0.000000 0.902780 -1.000000
v 0.000000 0.996570 -0.987273
v 0.000000 1.083746 -0.950005
v -0.309017 0.902780 -0.951057
v -0.305084 0.996570 -0.938952
v -0.293568 1.083746 -0.903509
v -0.587785 0.902780 -0.809017
v -0.580304 0.996570 -0.798720
v -0.558399 1.083746 -0.768570
v -0.809017 0.902780 -0.587785
v -0.798720 0.996570 -0.580304
v -0.768570 1.083746 -0.558399
v -0.951057 0.902780 -0.309017
v -0.938952 0.996570 -0.305084
v -0.903509 1.083746 -0.293568
v -1.000000 0.902780 0.000000
v -0.987272 0.996570 0.000000
v -0.950005 1.083746 0.000000
v -0.951057 0.902780 0.309017
v -0.938952 0.996570 0.305084
v -0.903509 1.083746 0.293568
v -0.809017 0.902780 0.587785
v -0.798720 0.996570 0.580304
v -0.768570 1.083746 0.558399
v -0.587785 0.902780 0.809017
v -0.580304 0.996570 0.798720
v -0.558399 1.083746 0.768570
v -0.309017 0.902780 0.951057
v -0.305084 0.996570 0.938952
v -0.293568 1.083746 0.903509
v -0.000000 0.902780 1.000000
v -0.000000 0.996570 0.987272
v -0.000000 1.083746 0.950005
v 0.309017 0.902780 0.951057
v 0.305084 0.996570 0.938952
v 0.293568 1.083746 0.903509
v 0.587785 0.902780 0.809017
v 0.580304 0.996570 0.798720
v 0.558399 1.083746 0.768570
v 0.809017 0.902780 0.587785
v 0.798720 0.996570 0.580304
v 0.768570 1.083746 0.558399
v 0.951057 0.902780 0.309017
v 0.938952 0.996570 0.305084
v 0.903508 1.083746 0.293568
v 1.000000 0.902780 0.000000
v 0.987272 0.996570 0.000000
v 0.950005 1.083746 0.000000
v 0.855961 -3.049379 -0.278119
v 0.923204 -3.020453 -0.299967
v 0.951057 -2.950621 -0.309017
v 0.728124 -3.049379 -0.529013
v 0.785324 -3.020453 -0.570572
v 0.809018 -2.950621 -0.587786
v 0.529013 -3.049379 -0.728124
v 0.570572 -3.020453 -0.785324
v 0.587786 -2.950621 -0.809017
v 0.278119 -3.049379 -0.855961
v 0.299967 -3.020453 -0.923204
v 0.309017 -2.950621 -0.951057
v 0.000000 -3.049379 -0.900011
v 0.000000 -3.020453 -0.970714
v 0.000000 -2.950621 -1.000000
v -0.278119 -3.049379 -0.855961
v -0.299967 -3.020453 -0.923204
v -0.309017 -2.950621 -0.951057
v -0.529013 -3.049379 -0.728124
v -0.570571 -3.020453 -0.785324
v -0.587785 -2.950621 -0.809017
v -0.728124 -3.049379 -0.529013
v -0.785324 -3.020453 -0.570571
v -0.809017 -2.950621 -0.587785
v -0.855961 -3.049379 -0.278119
v -0.923204 -3.020453 -0.299967
v -0.951057 -2.950621 -0.309017
v -0.900011 -3.049379 0.000000
v -0.970714 -3.020453 0.000000
v -1.000000 -2.950621 0.000000
v -0.855961 -3.049379 0.278119
v -0.923204 -3.020453 0.299967
v -0.951057 -2.950621 0.309017
v -0.728124 -3.049379 0.529013
v -0.785324 -3.020453 0.570571
v -0.809017 -2.950621 0.587785
v -0.529013 -3.049379 0.728124
v -0.570571 -3.020453 0.785324
v -0.587785 -2.950621 0.809017
v -0.278119 -3.049379 0.855961
v -0.299967 -3.020453 0.923204
v -0.309017 -2.950621 0.951057
v -0.000000 -3.049379 0.900010
v -0.000000 -3.020453 0.970714
v -0.000000 -2.950621 1.000000
v 0.278118 -3.049379 0.855961
v 0.299967 -3.020453 0.923204
v 0.309017 -2.950621 0.951057
v 0.529013 -3.049379 0.728124
v 0.570571 -3.020453 0.785324
v 0.587785 -2.950621 0.809017
v 0.728124 -3.049379 0.529013
v 0.785324 -3.020453 0.570571
v 0.809017 -2.950621 0.587785
v 0.855961 -3.049379 0.278118
v 0.923204 -3.020453 0.299967
v 0.951057 -2.950621 0.309017
v 0.900010 -3.049379 -0.000000
v 0.970714 -3.020453 -0.000000
v 1.000000 -2.950621 0.000000
vt 0.620089 0.930688
vt 0.587250 0.963527
vt 0.545870 0.984611
vt 0.500000 0.991876
vt 0.454130 0.984611
vt 0.412750 0.963527
vt 0.379911 0.930688
vt 0.358827 0.889307
vt 0.351562 0.843438
vt 0.358827 0.797568
vt 0.379911 0.756188
vt 0.412750 0.723348
vt 0.454130 0.702264
vt 0.500000 0.694999
vt 0.545870 0.702265
vt 0.587250 0.723349
vt 0.620089 0.756188
vt 0.641173 0.797568
vt 0.648439 0.843438
vt 0.641173 0.889308
vt 0.500000 0.837500
vt 0.625000 0.676257
vt 0.375000 0.688440
vt 0.648603 0.892034
vt 0.625000 0.688440
vt 0.387500 0.688440
vt 0.626409 0.935591
vt 0.400000 0.688440
vt 0.591841 0.970159
vt 0.412500 0.688440
vt 0.548284 0.992353
vt 0.425000 0.688440
vt 0.500000 1.000000
vt 0.437500 0.688440
vt 0.451716 0.992353
vt 0.450000 0.688440
vt 0.408159 0.970159
vt 0.462500 0.688440
vt 0.373591 0.935591
vt 0.475000 0.688440
vt 0.351397 0.892034
vt 0.487500 0.688440
vt 0.343750 0.843750
vt 0.500000 0.688440
vt 0.351397 0.795466
vt 0.512500 0.688440
vt 0.373591 0.751909
vt 0.525000 0.688440
vt 0.408159 0.717341
vt 0.537500 0.688440
vt 0.451716 0.695147
vt 0.550000 0.688440
vt 0.500000 0.687500
vt 0.562500 0.688440
vt 0.548284 0.695147
vt 0.575000 0.688440
vt 0.591842 0.717341
vt 0.587500 0.688440
vt 0.626409 0.751908
vt 0.600000 0.688440
vt 0.648603 0.795466
vt 0.656250 0.843750
vt 0.612500 0.688440
vt 0.633744 0.112169
vt 0.613769 0.072967
vt 0.582658 0.041856
vt 0.543456 0.021881
vt 0.500000 0.014998
vt 0.456544 0.021881
vt 0.417342 0.041856
vt 0.386231 0.072967
vt 0.366256 0.112169
vt 0.359373 0.155625
vt 0.366256 0.199081
vt 0.386231 0.238283
vt 0.417342 0.269394
vt 0.456544 0.289369
vt 0.500000 0.296252
vt 0.543456 0.289369
vt 0.582658 0.269394
vt 0.613769 0.238283
vt 0.633744 0.199081
vt 0.500000 0.150000
vt 0.640627 0.155625
vt 0.387500 0.324875
vt 0.375000 0.676257
vt 0.400000 0.324876
vt 0.387500 0.676257
vt 0.412500 0.324876
vt 0.400000 0.676257
vt 0.425000 0.324875
vt 0.412500 0.676257
vt 0.437500 0.324876
vt 0.425000 0.676257
vt 0.450000 0.324875
vt 0.437500 0.676257
vt 0.462500 0.324876
vt 0.450000 0.676257
vt 0.475000 0.324875
vt 0.462500 0.676257
vt 0.487500 0.324875
vt 0.475000 0.676257
vt 0.500000 0.324875
vt 0.487500 0.676257
vt 0.512500 0.324876
vt 0.500000 0.676257
vt 0.525000 0.324875
vt 0.512500 0.676257
vt 0.537500 0.324876
vt 0.525000 0.676257
vt 0.550000 0.324875
vt 0.537500 0.676257
vt 0.562500 0.324876
vt 0.550000 0.676257
vt 0.575000 0.324875
vt 0.562500 0.676257
vt 0.587500 0.324876
vt 0.575000 0.676257
vt 0.600000 0.324876
vt 0.587500 0.676257
vt 0.612500 0.324875
vt 0.600000 0.676257
vt 0.625000 0.324876
vt 0.612500 0.676257
vt 0.375000 0.324875
vt 0.648603 0.107966
vt 0.375000 0.312500
vt 0.625000 0.312500
vt 0.626409 0.064408
vt 0.387500 0.312500
vt 0.591842 0.029841
vt 0.400000 0.312500
vt 0.548284 0.007647
vt 0.412500 0.312500
vt 0.500000 -0.000000
vt 0.425000 0.312500
vt 0.451716 0.007647
vt 0.437500 0.312500
vt 0.408159 0.029841
vt 0.450000 0.312500
vt 0.373591 0.064409
vt 0.462500 0.312500
vt 0.351397 0.107966
vt 0.475000 0.312500
vt 0.343750 0.156250
vt 0.487500 0.312500
vt 0.351397 0.204534
vt 0.500000 0.312500
vt 0.373591 0.248091
vt 0.512500 0.312500
vt 0.408159 0.282659
vt 0.525000 0.312500
vt 0.451716 0.304853
vt 0.537500 0.312500
vt 0.500000 0.312500
vt 0.550000 0.312500
vt 0.548284 0.304853
vt 0.562500 0.312500
vt 0.591841 0.282659
vt 0.575000 0.312500
vt 0.626409 0.248091
vt 0.587500 0.312500
vt 0.648603 0.204534
vt 0.600000 0.312500
vt 0.612500 0.312500
vt 0.656250 0.156250
vn 0.823226 0.500753 -0.267481
vn 0.700277 0.500753 -0.508781
vn -0.000001 1.000000 0.000000
vn 0.508781 0.500753 -0.700278
vn 0.267482 0.500753 -0.823226
vn -0.000000 0.500753 -0.865591
vn -0.267482 0.500753 -0.823226
vn -0.508781 0.500752 -0.700277
vn -0.700277 0.500752 -0.508781
vn -0.823226 0.500753 -0.267482
vn -0.865591 0.500752 -0.000000
vn -0.823226 0.500753 0.267482
vn -0.700277 0.500752 0.508781
vn -0.508781 0.500752 0.700278
vn -0.267482 0.500752 0.823226
vn 0.000000 0.500752 0.865591
vn 0.267482 0.500752 0.823226
vn 0.508781 0.500752 0.700278
vn 0.700277 0.500752 0.508781
vn 0.823225 0.500752 0.267482
vn 0.865591 0.500752 0.000001
vn 0.951052 0.003163 -0.309014
vn 0.918052 0.261154 -0.298292
vn 0.965297 0.261154 0.000001
vn 0.999995 0.003163 0.000001
vn 0.780942 0.261154 -0.567387
vn 0.809013 0.003163 -0.587782
vn 0.567387 0.261154 -0.780942
vn 0.587782 0.003163 -0.809013
vn 0.298293 0.261154 -0.918052
vn 0.309015 0.003163 -0.951052
vn -0.000000 0.261154 -0.965297
vn -0.000000 0.003163 -0.999995
vn -0.298293 0.261154 -0.918052
vn -0.309016 0.003163 -0.951052
vn -0.567388 0.261154 -0.780942
vn -0.587783 0.003163 -0.809013
vn -0.780942 0.261154 -0.567387
vn -0.809013 0.003163 -0.587782
vn -0.918052 0.261154 -0.298293
vn -0.951052 0.003163 -0.309015
vn -0.965297 0.261153 -0.000000
vn -0.999995 0.003163 0.000000
vn -0.918052 0.261154 0.298293
vn -0.951052 0.003163 0.309016
vn -0.780942 0.261154 0.567387
vn -0.809013 0.003163 0.587783
vn -0.567387 0.261154 0.780942
vn -0.587782 0.003163 0.809013
vn -0.298293 0.261154 0.918052
vn -0.309015 0.003163 0.951052
vn 0.000000 0.261154 0.965297
vn 0.000000 0.003163 0.999995
vn 0.298293 0.261154 0.918052
vn 0.309016 0.003163 0.951052
vn 0.567388 0.261154 0.780942
vn 0.587782 0.003163 0.809013
vn 0.780942 0.261154 0.567387
vn 0.809013 0.003163 0.587782
vn 0.918052 0.261154 0.298293
vn 0.951052 0.003163 0.309015
vn 0.054627 -0.997718 -0.039689
vn 0.064219 -0.997718 -0.020866
vn 0.000000 -1.000000 0.000000
vn 0.039689 -0.997718 -0.054627
vn 0.020866 -0.997718 -0.064218
vn -0.000000 -0.997718 -0.067523
vn -0.020866 -0.997718 -0.064218
vn -0.039689 -0.997718 -0.054627
vn -0.054627 -0.997718 -0.039690
vn -0.064218 -0.997718 -0.020866
vn -0.067523 -0.997718 0.000000
vn -0.064218 -0.997718 0.020866
vn -0.054627 -0.997718 0.039689
vn -0.039689 -0.997718 0.054627
vn -0.020866 -0.997718 0.064218
vn 0.000000 -0.997718 0.067523
vn 0.020866 -0.997718 0.064219
vn 0.039689 -0.997718 0.054628
vn 0.054627 -0.997718 0.039689
vn 0.064218 -0.997718 0.020866
vn 0.067523 -0.997718 0.000000
vn 0.951033 -0.007079 -0.309008
vn 0.808997 -0.007079 -0.587771
vn 0.587770 -0.007079 -0.808997
vn 0.309009 -0.007079 -0.951033
vn -0.000000 -0.007079 -0.999975
vn -0.309009 -0.007079 -0.951033
vn -0.587771 -0.007079 -0.808997
vn -0.808997 -0.007079 -0.587770
vn -0.951033 -0.007078 -0.309009
vn -0.999975 -0.007078 0.000000
vn -0.951033 -0.007078 0.309009
vn -0.808997 -0.007079 0.587771
vn -0.587770 -0.007079 0.808997
vn -0.309009 -0.007079 0.951033
vn 0.000000 -0.007079 0.999975
vn 0.309009 -0.007079 0.951033
vn 0.587771 -0.007079 0.808997
vn 0.808997 -0.007079 0.587771
vn 0.951033 -0.007078 0.309009
vn 0.999975 -0.007079 0.000001
vn 0.360121 -0.925539 -0.117010
vn 0.378653 -0.925539 0.000000
vn 0.877052 -0.386745 -0.284970
vn 0.922187 -0.386744 0.000001
vn 0.746065 -0.386744 -0.542048
vn 0.306337 -0.925539 -0.222566
vn 0.542047 -0.386745 -0.746065
vn 0.222566 -0.925539 -0.306337
vn 0.284971 -0.386745 -0.877052
vn 0.117010 -0.925539 -0.360120
vn -0.000000 -0.386745 -0.922187
vn -0.000000 -0.925539 -0.378653
vn -0.284972 -0.386745 -0.877052
vn -0.117010 -0.925538 -0.360121
vn -0.542048 -0.386744 -0.746065
vn -0.222567 -0.925539 -0.306337
vn -0.746065 -0.386744 -0.542048
vn -0.306337 -0.925539 -0.222567
vn -0.877052 -0.386744 -0.284971
vn -0.360120 -0.925539 -0.117010
vn -0.922187 -0.386743 0.000000
vn -0.378653 -0.925539 0.000000
vn -0.877052 -0.386744 0.284971
vn -0.360120 -0.925539 0.117010
vn -0.746065 -0.386744 0.542048
vn -0.306337 -0.925539 0.222566
vn -0.542048 -0.386745 0.746065
vn -0.222567 -0.925539 0.306337
vn -0.284971 -0.386745 0.877052
vn -0.117010 -0.925539 0.360120
vn 0.000000 -0.386745 0.922187
vn 0.000000 -0.925539 0.378653
vn 0.284971 -0.386744 0.877052
vn 0.117010 -0.925539 0.360120
vn 0.542047 -0.386744 0.746065
vn 0.222567 -0.925539 0.306336
vn 0.746065 -0.386744 0.542048
vn 0.306336 -0.925539 0.222567
vn 0.877052 -0.386744 0.284971
vn 0.360120 -0.925539 0.117010
s 1
g pCylinder1
usemtl initialShadingGroup
f 5/20/1 8/1/2 2/21/3
f 8/1/2 11/2/4 2/21/3
f 11/2/4 14/3/5 2/21/3
f 14/3/5 17/4/6 2/21/3
f 17/4/6 20/5/7 2/21/3
f 20/5/7 23/6/8 2/21/3
f 23/6/8 26/7/9 2/21/3
f 26/7/9 29/8/10 2/21/3
f 29/8/10 32/9/11 2/21/3
f 32/9/11 35/10/12 2/21/3
f 35/10/12 38/11/13 2/21/3
f 38/11/13 41/12/14 2/21/3
f 41/12/14 44/13/15 2/21/3
f 44/13/15 47/14/16 2/21/3
f 47/14/16 50/15/17 2/21/3
f 50/15/17 53/16/18 2/21/3
f 53/16/18 56/17/19 2/21/3
f 56/17/19 59/18/20 2/21/3
f 59/18/20 62/19/21 2/21/3
f 62/19/21 5/20/1 2/21/3
f 3/22/22 4/25/23 61/63/24 60/124/25
f 4/24/23 5/20/1 62/19/21 61/62/24
f 5/20/1 4/24/23 7/27/26 8/1/2
f 4/23/23 3/86/22 6/88/27 7/26/26
f 8/1/2 7/27/26 10/29/28 11/2/4
f 7/26/26 6/88/27 9/90/29 10/28/28
f 11/2/4 10/29/28 13/31/30 14/3/5
f 10/28/28 9/90/29 12/92/31 13/30/30
f 14/3/5 13/31/30 16/33/32 17/4/6
f 13/30/30 12/92/31 15/94/33 16/32/32
f 17/4/6 16/33/32 19/35/34 20/5/7
f 16/32/32 15/94/33 18/96/35 19/34/34
f 20/5/7 19/35/34 22/37/36 23/6/8
f 19/34/34 18/96/35 21/98/37 22/36/36
f 23/6/8 22/37/36 25/39/38 26/7/9
f 22/36/36 21/98/37 24/100/39 25/38/38
f 26/7/9 25/39/38 28/41/40 29/8/10
f 25/38/38 24/100/39 27/102/41 28/40/40
f 29/8/10 28/41/40 31/43/42 32/9/11
f 28/40/40 27/102/41 30/104/43 31/42/42
f 32/9/11 31/43/42 34/45/44 35/10/12
f 31/42/42 30/104/43 33/106/45 34/44/44
f 35/10/12 34/45/44 37/47/46 38/11/13
f 34/44/44 33/106/45 36/108/47 37/46/46
f 38/11/13 37/47/46 40/49/48 41/12/14
f 37/46/46 36/108/47 39/110/49 40/48/48
f 41/12/14 40/49/48 43/51/50 44/13/15
f 40/48/48 39/110/49 42/112/51 43/50/50
f 44/13/15 43/51/50 46/53/52 47/14/16
f 43/50/50 42/112/51 45/114/53 46/52/52
f 47/14/16 46/53/52 49/55/54 50/15/17
f 46/52/52 45/114/53 48/116/55 49/54/54
f 50/15/17 49/55/54 52/57/56 53/16/18
f 49/54/54 48/116/55 51/118/57 52/56/56
f 53/16/18 52/57/56 55/59/58 56/17/19
f 52/56/56 51/118/57 54/120/59 55/58/58
f 56/17/19 55/59/58 58/61/60 59/18/20
f 55/58/58 54/120/59 57/122/61 58/60/60
f 59/18/20 58/61/60 61/62/24 62/19/21
f 58/60/60 57/122/61 60/124/25 61/63/24
s 3
f 66/65/62 63/64/63 1/83/64
f 69/66/65 66/65/62 1/83/64
f 72/67/66 69/66/65 1/83/64
f 75/68/67 72/67/66 1/83/64
f 78/69/68 75/68/67 1/83/64
f 81/70/69 78/69/68 1/83/64
f 84/71/70 81/70/69 1/83/64
f 87/72/71 84/71/70 1/83/64
f 90/73/72 87/72/71 1/83/64
f 93/74/73 90/73/72 1/83/64
f 96/75/74 93/74/73 1/83/64
f 99/76/75 96/75/74 1/83/64
f 102/77/76 99/76/75 1/83/64
f 105/78/77 102/77/76 1/83/64
f 108/79/78 105/78/77 1/83/64
f 111/80/79 108/79/78 1/83/64
f 114/81/80 111/80/79 1/83/64
f 117/82/81 114/81/80 1/83/64
f 120/84/82 117/82/81 1/83/64
f 63/64/63 120/84/82 1/83/64
s 1
f 65/125/83 68/85/84 6/88/27 3/86/22
f 68/85/84 71/87/85 9/90/29 6/88/27
f 71/87/85 74/89/86 12/92/31 9/90/29
f 74/89/86 77/91/87 15/94/33 12/92/31
f 77/91/87 80/93/88 18/96/35 15/94/33
f 80/93/88 83/95/89 21/98/37 18/96/35
f 83/95/89 86/97/90 24/100/39 21/98/37
f 86/97/90 89/99/91 27/102/41 24/100/39
f 89/99/91 92/101/92 30/104/43 27/102/41
f 92/101/92 95/103/93 33/106/45 30/104/43
f 95/103/93 98/105/94 36/108/47 33/106/45
f 98/105/94 101/107/95 39/110/49 36/108/47
f 101/107/95 104/109/96 42/112/51 39/110/49
f 104/109/96 107/111/97 45/114/53 42/112/51
f 107/111/97 110/113/98 48/116/55 45/114/53
f 110/113/98 113/115/99 51/118/57 48/116/55
f 113/115/99 116/117/100 54/120/59 51/118/57
f 116/117/100 119/119/101 57/122/61 54/120/59
f 119/119/101 122/121/102 60/124/25 57/122/61
f 122/121/102 65/123/83 3/22/22 60/124/25
s 3
f 63/64/63 64/126/103 121/166/104 120/84/82
s 1
f 64/128/105 65/123/83 122/121/102 121/165/106
f 65/125/83 64/127/105 67/130/107 68/85/84
s 3
f 64/126/103 63/64/63 66/65/62 67/129/108
s 1
f 68/85/84 67/130/107 70/132/109 71/87/85
s 3
f 67/129/108 66/65/62 69/66/65 70/131/110
s 1
f 71/87/85 70/132/109 73/134/111 74/89/86
s 3
f 70/131/110 69/66/65 72/67/66 73/133/112
s 1
f 74/89/86 73/134/111 76/136/113 77/91/87
s 3
f 73/133/112 72/67/66 75/68/67 76/135/114
s 1
f 77/91/87 76/136/113 79/138/115 80/93/88
s 3
f 76/135/114 75/68/67 78/69/68 79/137/116
s 1
f 80/93/88 79/138/115 82/140/117 83/95/89
s 3
f 79/137/116 78/69/68 81/70/69 82/139/118
s 1
f 83/95/89 82/140/117 85/142/119 86/97/90
s 3
f 82/139/118 81/70/69 84/71/70 85/141/120
s 1
f 86/97/90 85/142/119 88/144/121 89/99/91
s 3
f 85/141/120 84/71/70 87/72/71 88/143/122
s 1
f 89/99/91 88/144/121 91/146/123 92/101/92
s 3
f 88/143/122 87/72/71 90/73/72 91/145/124
s 1
f 92/101/92 91/146/123 94/148/125 95/103/93
s 3
f 91/145/124 90/73/72 93/74/73 94/147/126
s 1
f 95/103/93 94/148/125 97/150/127 98/105/94
s 3
f 94/147/126 93/74/73 96/75/74 97/149/128
s 1
f 98/105/94 97/150/127 100/152/129 101/107/95
s 3
f 97/149/128 96/75/74 99/76/75 100/151/130
s 1
f 101/107/95 100/152/129 103/154/131 104/109/96
s 3
f 100/151/130 99/76/75 102/77/76 103/153/132
s 1
f 104/109/96 103/154/131 106/156/133 107/111/97
s 3
f 103/153/132 102/77/76 105/78/77 106/155/134
s 1
f 107/111/97 106/156/133 109/158/135 110/113/98
s 3
f 106/155/134 105/78/77 108/79/78 109/157/136
s 1
f 110/113/98 109/158/135 112/160/137 113/115/99
s 3
f 109/157/136 108/79/78 111/80/79 112/159/138
s 1
f 113/115/99 112/160/137 115/162/139 116/117/100
s 3
f 112/159/138 111/80/79 114/81/80 115/161/140
s 1
f 116/117/100 115/162/139 118/164/141 119/119/101
s 3
f 115/161/140 114/81/80 117/82/81 118/163/142
s 1
f 119/119/101 118/164/141 121/165/106 122/121/102
s 3
f 118/163/142 117/82/81 120/84/82 121/166/104
